<?xml version="1.0" standalone="no"?><!DOCTYPE svg PUBLIC "-//W3C//DTD SVG 1.1//EN" "http://www.w3.org/Graphics/SVG/1.1/DTD/svg11.dtd"><svg t="1671593686910" class="icon" viewBox="0 0 1024 1024" version="1.1" xmlns="http://www.w3.org/2000/svg" p-id="13432" xmlns:xlink="http://www.w3.org/1999/xlink" width="200" height="200"><path d="M394.4 841.8h233.1c4.1 58.9-46.2 111.7-107.9 115.2-68.7 3.9-121.9-43.8-125.2-115.2z" fill="#EA590A" p-id="13433"></path><path d="M893.7 759.1c-35.8-26.1-46.8-63.5-47-105.4-0.3-67.5 1.2-135.1-0.8-202.6-4.4-148.2-100.3-268.3-243.6-307.1h-1.2c-5.9-44.5-44-78.9-90.1-78.9-46.3 0-84.4 34.6-90.2 79.3-151.7 43.4-243.5 165.3-244.1 322.8-0.2 59.3-1.2 118.7 0.3 177.9 1.3 50-12.8 90.3-55.2 120.6-27.2 19.4-23.5 61.1 5.3 75.6 11.5 5.8 26.3 7 39.7 7 114.1 0.5 228.1 0.3 342.2 0.3 116.8 0 233.6-0.1 350.4 0.1 24.5 0 46.3-5.7 55.8-30.6 9.4-24.6-0.9-44-21.5-59z" fill="#0D4D90" p-id="13434"></path><path d="M726.2 404c-4.2 54.5-7.7 104.7-12 154.9-2.1 24.7-10.8 36.4-25.2 36.7-15.4 0.3-24-12.1-26.3-37.3-4.5-51.9-9.5-103.8-13.6-155.7-2.2-28.4 13.7-46.8 38.9-47 24.8-0.2 39.5 18.2 38.1 47.6 0.1 1.6 0.1 3.4 0.1 0.8zM687 687.3c-18.6-0.3-33.3-15.6-32.7-34 0.5-17.1 16.4-31.6 34-31.2 17.7 0.4 32.9 15.5 32.7 32.5-0.3 18.6-15.2 33-34 32.7z" fill="#FFD301" p-id="13435"></path></svg>